# xmcd
#
# Track frame offsets:
#	150
#	18206
#	32423
#	45755
#	57435
#	72009
#	89550
#	108660
#	124287
#	141981
#	157226
#	171239
#	191049
#	207100
#	218906
#	241259
#	259261
#	275857
#	288436
#	309975
#	324423
#
# Disc length: 4590 seconds
#
# Revision: 0
# Processed by: cddbd v1.5.2PL0 Copyright (c) Steve Scherf et al.
# Submitted via: EasyCDDAExtractor 2010.6.0.0
#
DISCID=3d11ec15
DTITLE=Ollie Austin - The Most Requested
DYEAR=1900
DGENRE=
TTITLE0=Burgers and Fries
TTITLE1=Lay You Down
TTITLE2=Rake and Ramblin Man
TTITLE3=Family Bible
TTITLE4=It aint Me Babe
TTITLE5=On The Other Hand
TTITLE6=Dont Close Your Eyes
TTITLE7=Rainbows and Roses
TTITLE8=Till Hell Freezes Over
TTITLE9=I'm Gona Do You Right
TTITLE10=Tonight Girls Women and Ladies
TTITLE11=Boulder to Birmingham
TTITLE12=New York Joe Redneck Tennessee
TTITLE13=Storms Never Last
TTITLE14=Sunday Morning Coming Down
TTITLE15=Storms Never Last
TTITLE16=Wildflowers in a Mason's Jar
TTITLE17=Lay Down Beside Me
TTITLE18=Watermelon Wine
TTITLE19=Only Reason God Made Oklahoma
TTITLE20=Wind Beneath My Wings
EXTD=
EXTT0=
EXTT1=
EXTT2=
EXTT3=
EXTT4=
EXTT5=
EXTT6=
EXTT7=
EXTT8=
EXTT9=
EXTT10=
EXTT11=
EXTT12=
EXTT13=
EXTT14=
EXTT15=
EXTT16=
EXTT17=
EXTT18=
EXTT19=
EXTT20=
PLAYORDER=
